<svg width="343" height="192" viewBox="0 0 343 192" fill="none" xmlns="http://www.w3.org/2000/svg">
<path d="M211.52 49.32V103H209.92V46.2H211.12L254.56 100.68V46.2H256.16V103H254.32L211.52 49.32ZM309.389 98.04V103H271.229V46.2H308.669V51.16H276.829V71.64H304.589V76.36H276.829V98.04H309.389Z" fill="white"/>
<path d="M86.9 32H92.8L122.3 103H114.9L105.7 80.8H73.8L64.7 103H57.2L86.9 32ZM104.1 75.3L89.8 40.2L75.3 75.3H104.1Z" fill="white"/>
<path d="M142.9 44.9V103H135.9V32H141.7L188.3 91.2V32.1H195.3V103H188.8L142.9 44.9Z" fill="white"/>
<path d="M32.57 122V29.7H41.67V113.94H94.97V122H32.57Z" fill="white"/>
<path d="M94 114L310 114.09V122H94V114Z" fill="white"/>
<path d="M189 32.0977L309 32V40H189V36V32.0977Z" fill="white"/>
<path d="M101.204 161.374C100.397 161.374 99.6053 161.264 98.828 161.044C98.0507 160.824 97.4127 160.509 96.914 160.098C96.43 159.687 96.188 159.218 96.188 158.69V156.336H96.584C96.8333 157.803 97.3173 158.866 98.036 159.526C98.7547 160.171 99.7447 160.494 101.006 160.494C101.798 160.494 102.473 160.296 103.03 159.9C103.602 159.504 103.888 158.954 103.888 158.25C103.888 157.634 103.697 157.099 103.316 156.644C102.935 156.189 102.319 155.713 101.468 155.214L98.762 153.608C97.8233 153.051 97.156 152.486 96.76 151.914C96.3787 151.342 96.188 150.645 96.188 149.824C96.188 148.695 96.5767 147.793 97.354 147.118C98.146 146.429 99.18 146.084 100.456 146.084C101.204 146.084 101.945 146.194 102.678 146.414C103.411 146.619 104.013 146.927 104.482 147.338C104.966 147.734 105.208 148.196 105.208 148.724V151.078H104.812C104.563 149.611 104.086 148.563 103.382 147.932C102.693 147.287 101.717 146.964 100.456 146.964C99.7813 146.964 99.1873 147.169 98.674 147.58C98.1607 147.991 97.904 148.526 97.904 149.186C97.904 149.787 98.0873 150.286 98.454 150.682C98.8353 151.078 99.466 151.54 100.346 152.068L103.052 153.674C104.049 154.275 104.753 154.833 105.164 155.346C105.575 155.859 105.78 156.512 105.78 157.304C105.78 158.536 105.369 159.526 104.548 160.274C103.727 161.007 102.612 161.374 101.204 161.374ZM127.762 147.36H125.782C123.949 147.36 123.032 148.203 123.032 149.89H122.592V148.24C122.592 147.067 123.216 146.48 124.462 146.48H134.692V147.36H129.742V161H127.762V147.36ZM158.145 161.22C156.737 161.22 155.622 160.985 154.801 160.516C153.979 160.032 153.393 159.321 153.041 158.382C152.703 157.443 152.535 156.226 152.535 154.73V149.12C152.535 148.372 152.432 147.822 152.227 147.47C152.021 147.103 151.611 146.92 150.995 146.92H150.555V146.48H152.535C153.077 146.48 153.481 146.553 153.745 146.7C154.023 146.832 154.221 147.081 154.339 147.448C154.456 147.815 154.515 148.372 154.515 149.12V155.39C154.515 157.018 154.815 158.25 155.417 159.086C156.018 159.922 157.015 160.34 158.409 160.34C159.523 160.34 160.403 160.142 161.049 159.746C161.709 159.35 162.178 158.749 162.457 157.942C162.735 157.135 162.875 156.065 162.875 154.73V146.48H163.755V154.73C163.755 156.255 163.593 157.487 163.271 158.426C162.948 159.35 162.376 160.047 161.555 160.516C160.748 160.985 159.611 161.22 158.145 161.22ZM183.192 149.12C183.192 148.372 183.089 147.822 182.884 147.47C182.679 147.103 182.268 146.92 181.652 146.92H181.212V146.48H186.976C189.821 146.48 191.97 147.111 193.422 148.372C194.889 149.633 195.622 151.393 195.622 153.652C195.622 155.104 195.314 156.387 194.698 157.502C194.082 158.602 193.165 159.46 191.948 160.076C190.745 160.692 189.279 161 187.548 161H183.192V149.12ZM187.482 160.23C188.567 160.23 189.543 159.966 190.408 159.438C191.288 158.895 191.977 158.14 192.476 157.172C192.975 156.189 193.224 155.045 193.224 153.74C193.224 152.464 192.975 151.335 192.476 150.352C191.992 149.369 191.31 148.607 190.43 148.064C189.55 147.521 188.553 147.25 187.438 147.25C186.734 147.25 186.001 147.367 185.238 147.602V159.944C186.059 160.135 186.807 160.23 187.482 160.23ZM215.925 161C215.382 161 214.971 160.934 214.693 160.802C214.429 160.655 214.238 160.399 214.121 160.032C214.003 159.665 213.945 159.108 213.945 158.36V146.48H215.925V158.36C215.925 159.108 216.027 159.665 216.233 160.032C216.438 160.384 216.849 160.56 217.465 160.56H217.905V161H215.925ZM241.342 161.44C239.978 161.44 238.775 161.103 237.734 160.428C236.707 159.753 235.915 158.829 235.358 157.656C234.8 156.483 234.522 155.177 234.522 153.74C234.522 152.303 234.8 150.997 235.358 149.824C235.915 148.651 236.707 147.727 237.734 147.052C238.775 146.377 239.978 146.04 241.342 146.04C242.706 146.04 243.901 146.377 244.928 147.052C245.969 147.727 246.768 148.651 247.326 149.824C247.883 150.997 248.162 152.303 248.162 153.74C248.162 155.177 247.883 156.483 247.326 157.656C246.768 158.829 245.969 159.753 244.928 160.428C243.901 161.103 242.706 161.44 241.342 161.44ZM241.342 160.56C242.295 160.56 243.116 160.281 243.806 159.724C244.51 159.167 245.045 158.382 245.412 157.37C245.778 156.343 245.962 155.133 245.962 153.74C245.962 152.347 245.778 151.144 245.412 150.132C245.045 149.105 244.51 148.313 243.806 147.756C243.116 147.199 242.295 146.92 241.342 146.92C240.388 146.92 239.56 147.199 238.856 147.756C238.166 148.313 237.638 149.105 237.272 150.132C236.905 151.144 236.722 152.347 236.722 153.74C236.722 155.133 236.905 156.343 237.272 157.37C237.638 158.382 238.166 159.167 238.856 159.724C239.56 160.281 240.388 160.56 241.342 160.56Z" fill="white"/>
<rect x="2" y="2" width="336" height="188" stroke="white" stroke-width="4"/>
</svg>
