<svg width="322" height="135" viewBox="0 0 322 135" fill="none" xmlns="http://www.w3.org/2000/svg">
<path d="M190.52 49.32V103H188.92V46.2H190.12L233.56 100.68V46.2H235.16V103H233.32L190.52 49.32ZM288.389 98.04V103H250.229V46.2H287.669V51.16H255.829V71.64H283.589V76.36H255.829V98.04H288.389Z" fill="white"/>
<path d="M65.9 32H71.8L101.3 103H93.9L84.7 80.8H52.8L43.7 103H36.2L65.9 32ZM83.1 75.3L68.8 40.2L54.3 75.3H83.1Z" fill="white"/>
<path d="M121.9 44.9V103H114.9V32H120.7L167.3 91.2V32.1H174.3V103H167.8L121.9 44.9Z" fill="white"/>
<path d="M11.57 122V29.7H20.67V113.94H73.97V122H11.57Z" fill="white"/>
<path d="M73 114L289 114.09V122H73V114Z" fill="white"/>
<path d="M168 32.0977L288 32V40H168V36V32.0977Z" fill="white"/>
</svg>
